<svg xmlns="http://www.w3.org/2000/svg" viewBox="0 0 750 500"><g id="freepik--Window--inject-149"><rect x="169.31" y="106.67" width="149.82" height="94.52" style="fill:#37474f"></rect><rect x="169.31" y="106.67" width="149.82" height="8.33" style="fill:#BA68C8"></rect><path d="M177.13,110.89a2.1,2.1,0,1,1-2.1-2.09A2.1,2.1,0,0,1,177.13,110.89Z" style="fill:#a6a6a6"></path><path d="M185.69,110.89a2.1,2.1,0,1,1-2.1-2.09A2.1,2.1,0,0,1,185.69,110.89Z" style="fill:#ebebeb"></path><path d="M194.24,110.89a2.1,2.1,0,1,1-2.09-2.09A2.1,2.1,0,0,1,194.24,110.89Z" style="fill:#fff"></path><rect x="178.25" y="131.56" width="4.45" height="1.63" style="fill:#ebebeb"></rect><rect x="185.94" y="131.56" width="71.89" height="1.63" style="fill:#ebebeb"></rect><rect x="260.57" y="131.56" width="8.45" height="1.63" style="fill:#BA68C8"></rect><rect x="274.1" y="153.31" width="8.45" height="1.63" style="fill:#ebebeb"></rect><rect x="270.86" y="131.56" width="28.5" height="1.63" style="fill:#a6a6a6"></rect><rect x="182.7" y="135.91" width="4.45" height="1.63" style="fill:#ebebeb"></rect><rect x="190.28" y="135.91" width="33.51" height="1.63" style="fill:#a6a6a6"></rect><rect x="259.42" y="153.31" width="12.67" height="1.63" style="fill:#a6a6a6"></rect><rect x="185.94" y="148.96" width="32.01" height="1.63" style="fill:#a6a6a6"></rect><rect x="190.28" y="140.26" width="22.45" height="1.63" style="fill:#BA68C8"></rect><rect x="266.22" y="144.61" width="22.45" height="1.63" style="fill:#a6a6a6"></rect><rect x="215.22" y="140.26" width="56.69" height="1.63" style="fill:#a6a6a6"></rect><rect x="185.94" y="153.31" width="70.58" height="1.63" style="fill:#BA68C8"></rect><rect x="269.92" y="135.91" width="37.08" height="1.63" style="fill:#BA68C8"></rect><rect x="225.89" y="135.91" width="42.19" height="1.63" style="fill:#ebebeb"></rect><rect x="287.49" y="140.26" width="14.41" height="1.63" style="fill:#ebebeb"></rect><rect x="182.7" y="140.26" width="4.45" height="1.63" style="fill:#ebebeb"></rect><rect x="178.25" y="144.61" width="4.45" height="1.63" style="fill:#a6a6a6"></rect><rect x="185.94" y="144.61" width="26.31" height="1.63" style="fill:#ebebeb"></rect><rect x="190.28" y="157.67" width="26.31" height="1.63" style="fill:#ebebeb"></rect><rect x="260.17" y="162.02" width="33.89" height="1.63" style="fill:#BA68C8"></rect><rect x="218.72" y="157.67" width="47.21" height="1.63" style="fill:#BA68C8"></rect><rect x="214.07" y="162.02" width="43.8" height="1.63" style="fill:#ebebeb"></rect><rect x="190.28" y="162.02" width="7.62" height="1.63" style="fill:#a6a6a6"></rect><rect x="219.76" y="148.96" width="49.27" height="1.63" style="fill:#ebebeb"></rect><rect x="270.86" y="148.96" width="31.98" height="1.63" style="fill:#BA68C8"></rect><rect x="214.92" y="144.61" width="49.23" height="1.63" style="fill:#BA68C8"></rect><rect x="178.25" y="148.96" width="4.45" height="1.63" style="fill:#ebebeb"></rect><rect x="178.25" y="153.31" width="4.45" height="1.63" style="fill:#ebebeb"></rect><rect x="182.7" y="157.67" width="4.45" height="1.63" style="fill:#a6a6a6"></rect><rect x="182.7" y="162.02" width="4.45" height="1.63" style="fill:#ebebeb"></rect><rect x="178.25" y="165.66" width="4.45" height="1.63" style="fill:#ebebeb"></rect><rect x="185.94" y="165.66" width="52.19" height="1.63" style="fill:#ebebeb"></rect><rect x="182.7" y="170.01" width="4.45" height="1.63" style="fill:#ebebeb"></rect><rect x="190.28" y="170.01" width="33.51" height="1.63" style="fill:#a6a6a6"></rect><rect x="185.94" y="183.07" width="32.01" height="1.63" style="fill:#a6a6a6"></rect><rect x="190.28" y="174.36" width="22.45" height="1.63" style="fill:#BA68C8"></rect><rect x="215.22" y="174.36" width="56.69" height="1.63" style="fill:#a6a6a6"></rect><rect x="185.94" y="187.42" width="70.58" height="1.63" style="fill:#BA68C8"></rect><rect x="269.92" y="170.01" width="37.08" height="1.63" style="fill:#BA68C8"></rect><rect x="225.89" y="170.01" width="42.19" height="1.63" style="fill:#ebebeb"></rect><rect x="287.49" y="174.36" width="14.41" height="1.63" style="fill:#ebebeb"></rect><rect x="182.7" y="174.36" width="4.45" height="1.63" style="fill:#ebebeb"></rect><rect x="178.25" y="178.72" width="4.45" height="1.63" style="fill:#a6a6a6"></rect><rect x="185.94" y="178.72" width="26.31" height="1.63" style="fill:#ebebeb"></rect><rect x="219.76" y="183.07" width="49.27" height="1.63" style="fill:#ebebeb"></rect><rect x="214.92" y="178.72" width="49.23" height="1.63" style="fill:#BA68C8"></rect><rect x="178.25" y="183.07" width="4.45" height="1.63" style="fill:#ebebeb"></rect><path d="M181,127.28a.39.39,0,0,1,0,.55.43.43,0,0,1-.27.11.39.39,0,0,1-.28-.11l-1.72-1.75a0,0,0,0,1,0,0h0s0,0,0-.05,0,0,0,0,0,0,0,0,0,0,0,0v0s0,0,0,0,0,0,0,0v-.06a.09.09,0,0,0,0,0,0,0,0,0,1,0,0,.33.33,0,0,1,0-.06h0l0,0,1.72-1.74a.39.39,0,0,1,.55.55l-1.45,1.46Z" style="fill:#BA68C8"></path><path d="M182.55,127.47l1.5-3.56a.34.34,0,0,1,.62.26l-1.5,3.56a.35.35,0,0,1-.31.21.31.31,0,0,1-.13,0A.34.34,0,0,1,182.55,127.47Z" style="fill:#BA68C8"></path><path d="M187.62,126h0l-.05,0-1.71,1.75a.43.43,0,0,1-.28.11.39.39,0,0,1-.27-.11.38.38,0,0,1,0-.55l1.44-1.46-1.44-1.46a.38.38,0,0,1,0-.55.39.39,0,0,1,.55,0l1.71,1.74.05,0h0s0,0,0,.06a0,0,0,0,1,0,0,.06.06,0,0,0,0,0v.06s0,0,0,0v.09a.06.06,0,0,0,0,0s0,0,0,0S187.63,126,187.62,126Z" style="fill:#BA68C8"></path></g><g id="freepik--Files--inject-149"><polygon points="414.59 138.21 350.88 138.21 350.88 55 398.91 55 414.59 70.68 414.59 138.21" style="fill:#BA68C8"></polygon><polygon points="414.59 138.21 350.88 138.21 350.88 55 398.91 55 414.59 70.68 414.59 138.21" style="fill:#fff;opacity:0.6000000000000001"></polygon><polygon points="414.59 70.68 398.91 70.68 398.91 55 414.59 70.68" style="fill:#BA68C8"></polygon><path d="M365.61,84.33a4.75,4.75,0,1,0,4.74-4.77A4.75,4.75,0,0,0,365.61,84.33Z" style="fill:#BA68C8"></path><polygon points="372.94 105.43 405.16 105.43 389.05 85.76 372.94 105.43" style="fill:#BA68C8"></polygon><polygon points="360.31 105.43 386.91 105.43 373.61 92.62 360.31 105.43" style="fill:#BA68C8"></polygon><polygon points="360.31 105.43 386.91 105.43 373.61 92.62 360.31 105.43" style="opacity:0.1"></polygon><path d="M406.16,106.43H359.31V73h46.85Zm-44.85-2h42.85V75H361.31Z" style="fill:#BA68C8"></path><rect x="335.41" y="108.82" width="45.76" height="18.94" style="fill:#455a64"></rect><path d="M348.84,114v9.18h-1.77v-3.91h-4.16v3.91h-1.79V114h1.79v3.71h4.16V114Z" style="fill:#fff"></path><path d="M357.63,115.55h-2.94v7.61h-1.77v-7.61H350V114h7.65Z" style="fill:#fff"></path><path d="M366.25,123.16v-6.07l-2.36,4.52h-1l-2.37-4.52v6.07h-1.79V114h1.92l2.72,5.23,2.74-5.23H368v9.18Z" style="fill:#fff"></path><path d="M370,123.16V114h1.79v7.62h4.68v1.56Z" style="fill:#fff"></path><polygon points="414.59 246.78 350.88 246.78 350.88 163.57 398.91 163.57 414.59 179.25 414.59 246.78" style="fill:#BA68C8"></polygon><polygon points="414.59 246.78 350.88 246.78 350.88 163.57 398.91 163.57 414.59 179.25 414.59 246.78" style="fill:#fff;opacity:0.6000000000000001"></polygon><polygon points="414.59 179.25 398.91 179.25 398.91 163.57 414.59 179.25" style="fill:#BA68C8"></polygon><path d="M365.61,192.9a4.75,4.75,0,1,0,4.74-4.77A4.75,4.75,0,0,0,365.61,192.9Z" style="fill:#BA68C8"></path><polygon points="372.94 214 405.16 214 389.05 194.33 372.94 214" style="fill:#BA68C8"></polygon><polygon points="360.31 214 386.91 214 373.61 201.19 360.31 214" style="fill:#BA68C8"></polygon><polygon points="360.31 214 386.91 214 373.61 201.19 360.31 214" style="opacity:0.1"></polygon><path d="M406.16,215H359.31V181.53h46.85Zm-44.85-2h42.85V183.53H361.31Z" style="fill:#BA68C8"></path><rect x="335.41" y="217.39" width="45.76" height="18.94" style="fill:#455a64"></rect><path d="M346.22,227.08a4.77,4.77,0,0,1,.3-1.66,4.42,4.42,0,0,1,.89-1.47,4.57,4.57,0,0,1,1.42-1,4.37,4.37,0,0,1,1.92-.4,4.2,4.2,0,0,1,2.19.56,3.53,3.53,0,0,1,1.37,1.45l-1.37.94a2.07,2.07,0,0,0-.44-.65,2,2,0,0,0-.55-.42,2.45,2.45,0,0,0-.62-.23,2.85,2.85,0,0,0-.64-.07,2.43,2.43,0,0,0-1.17.27,2.54,2.54,0,0,0-.82.7,3.08,3.08,0,0,0-.5,1,3.75,3.75,0,0,0-.17,1.09,3.5,3.5,0,0,0,.19,1.17,3.17,3.17,0,0,0,.55,1,2.76,2.76,0,0,0,.86.69,2.33,2.33,0,0,0,1.09.25,3,3,0,0,0,.65-.07,2.65,2.65,0,0,0,.64-.25,2.26,2.26,0,0,0,.56-.43,2,2,0,0,0,.41-.64l1.46.84a2.68,2.68,0,0,1-.62.91,4.1,4.1,0,0,1-.92.67,4.62,4.62,0,0,1-1.09.41,4.56,4.56,0,0,1-1.14.14,3.85,3.85,0,0,1-1.8-.41,4.85,4.85,0,0,1-2.32-2.59A4.74,4.74,0,0,1,346.22,227.08Z" style="fill:#fff"></path><path d="M361.12,225a2.68,2.68,0,0,0-.33-.25,5.14,5.14,0,0,0-.58-.3,5.07,5.07,0,0,0-.75-.25,3.16,3.16,0,0,0-.81-.11,1.84,1.84,0,0,0-1.1.27.92.92,0,0,0-.36.77.79.79,0,0,0,.13.47,1.24,1.24,0,0,0,.4.33,3.81,3.81,0,0,0,.65.26c.26.08.57.16.91.24a11.75,11.75,0,0,1,1.22.39,3.18,3.18,0,0,1,.93.52,2,2,0,0,1,.59.74,2.46,2.46,0,0,1,.21,1.07,2.61,2.61,0,0,1-.28,1.26,2.28,2.28,0,0,1-.75.85,3.4,3.4,0,0,1-1.08.47,5.43,5.43,0,0,1-1.29.15,6.78,6.78,0,0,1-2-.31,6.4,6.4,0,0,1-1.82-.88l.79-1.54a2.32,2.32,0,0,0,.42.3,7.88,7.88,0,0,0,.72.38,6.58,6.58,0,0,0,.92.32,4.46,4.46,0,0,0,1,.12c1,0,1.48-.31,1.48-.94a.76.76,0,0,0-.17-.5,1.45,1.45,0,0,0-.48-.37,4.79,4.79,0,0,0-.75-.28l-1-.29a9,9,0,0,1-1.15-.39,3,3,0,0,1-.8-.5,1.91,1.91,0,0,1-.49-.68,2.25,2.25,0,0,1-.16-.91,2.89,2.89,0,0,1,.26-1.24,2.55,2.55,0,0,1,.72-.91,3.33,3.33,0,0,1,1.06-.55,4.61,4.61,0,0,1,1.31-.18,5.17,5.17,0,0,1,1.79.3,6.51,6.51,0,0,1,1.42.72Z" style="fill:#fff"></path><path d="M369.05,225a2.68,2.68,0,0,0-.33-.25,5,5,0,0,0-1.33-.55,3.22,3.22,0,0,0-.81-.11,1.84,1.84,0,0,0-1.1.27.93.93,0,0,0-.37.77.79.79,0,0,0,.14.47,1.31,1.31,0,0,0,.39.33,4.33,4.33,0,0,0,.66.26c.26.08.57.16.91.24a11.75,11.75,0,0,1,1.22.39,3.18,3.18,0,0,1,.93.52,2.1,2.1,0,0,1,.59.74,2.46,2.46,0,0,1,.21,1.07,2.61,2.61,0,0,1-.28,1.26,2.28,2.28,0,0,1-.75.85,3.36,3.36,0,0,1-1.09.47,5.34,5.34,0,0,1-1.28.15,6.89,6.89,0,0,1-2.05-.31,6.48,6.48,0,0,1-1.81-.88l.79-1.54a2.32,2.32,0,0,0,.42.3,5.9,5.9,0,0,0,.72.38,6.58,6.58,0,0,0,.92.32,4.46,4.46,0,0,0,1,.12c1,0,1.48-.31,1.48-.94a.76.76,0,0,0-.17-.5,1.45,1.45,0,0,0-.48-.37,5.7,5.7,0,0,0-.75-.28l-1-.29a9,9,0,0,1-1.15-.39,3.19,3.19,0,0,1-.81-.5,2,2,0,0,1-.48-.68,2.25,2.25,0,0,1-.16-.91,2.75,2.75,0,0,1,.26-1.24,2.64,2.64,0,0,1,.71-.91,3.5,3.5,0,0,1,1.07-.55,4.61,4.61,0,0,1,1.31-.18,5.12,5.12,0,0,1,1.78.3,6.37,6.37,0,0,1,1.43.72Z" style="fill:#fff"></path><polygon points="414.59 355.36 350.88 355.36 350.88 272.15 398.91 272.15 414.59 287.82 414.59 355.36" style="fill:#BA68C8"></polygon><polygon points="414.59 355.36 350.88 355.36 350.88 272.15 398.91 272.15 414.59 287.82 414.59 355.36" style="fill:#fff;opacity:0.6000000000000001"></polygon><polygon points="414.59 287.82 398.91 287.82 398.91 272.15 414.59 287.82" style="fill:#BA68C8"></polygon><path d="M365.61,301.47a4.75,4.75,0,1,0,4.74-4.77A4.75,4.75,0,0,0,365.61,301.47Z" style="fill:#BA68C8"></path><polygon points="372.94 322.57 405.16 322.57 389.05 302.9 372.94 322.57" style="fill:#BA68C8"></polygon><polygon points="360.31 322.57 386.91 322.57 373.61 309.76 360.31 322.57" style="fill:#BA68C8"></polygon><polygon points="360.31 322.57 386.91 322.57 373.61 309.76 360.31 322.57" style="opacity:0.1"></polygon><path d="M406.16,323.57H359.31V290.1h46.85Zm-44.85-2h42.85V292.1H361.31Z" style="fill:#BA68C8"></path><rect x="335.41" y="325.96" width="45.76" height="18.94" style="fill:#455a64"></rect><path d="M352.34,338.43a2.87,2.87,0,0,0,1.59.44,1.7,1.7,0,0,0,.87-.19,1.11,1.11,0,0,0,.49-.57,3.09,3.09,0,0,0,.22-1,13.4,13.4,0,0,0,.05-1.35v-4.67h1.79v4.67a15.75,15.75,0,0,1-.11,1.91,4,4,0,0,1-.47,1.47,2.41,2.41,0,0,1-1,.94,4,4,0,0,1-1.81.34,3.43,3.43,0,0,1-2-.57Z" style="fill:#fff"></path><path d="M361.43,340.44a5.25,5.25,0,0,1-1.66-.27,4.31,4.31,0,0,1-1.4-.78l.65-1.09a5.06,5.06,0,0,0,1.21.67,3.23,3.23,0,0,0,1.17.22,1.47,1.47,0,0,0,.81-.19.62.62,0,0,0,.3-.56.57.57,0,0,0-.35-.53,7,7,0,0,0-1.14-.38c-.44-.12-.81-.24-1.12-.35a2.9,2.9,0,0,1-.75-.39,1.3,1.3,0,0,1-.42-.49,1.62,1.62,0,0,1-.13-.66,2.12,2.12,0,0,1,.2-.93,2.06,2.06,0,0,1,.57-.71,2.59,2.59,0,0,1,.84-.44,3.32,3.32,0,0,1,1.06-.16,4.46,4.46,0,0,1,1.43.22,3.52,3.52,0,0,1,1.22.71l-.7,1.05a4,4,0,0,0-1-.57,2.81,2.81,0,0,0-1-.18,1.36,1.36,0,0,0-.73.18.62.62,0,0,0-.3.58.56.56,0,0,0,.07.3.59.59,0,0,0,.23.21,2.66,2.66,0,0,0,.4.17,6.46,6.46,0,0,0,.63.18q.7.18,1.2.36a3.39,3.39,0,0,1,.81.41,1.58,1.58,0,0,1,.47.54,1.61,1.61,0,0,1,.15.73,1.89,1.89,0,0,1-.74,1.57A3.2,3.2,0,0,1,361.43,340.44Z" style="fill:#fff"></path><path d="M328.43,226.86h-1v-4h1Zm0-7h-1v-4h1Zm0-7h-1v-4h1Zm0-7h-1v-4h1Zm0-7h-1v-4h1Zm0-7h-1v-4h1Zm0-7h-1v-4h1Zm0-7h-1v-4h1Zm0-7h-1v-4h1Zm0-7h-1v-4h1Zm0-7h-1v-4h1Zm0-7h-1v-4h1Zm0-7h-1v-4h1Zm0-7h-1v-4h1Zm0-7h-1v-4h1Zm0-7h-1v-4.07h.93v.5h.07Zm3.06-3.07h-.13v-1h.13Z" style="fill:#263238"></path><circle cx="331.41" cy="118.29" r="1.5" style="fill:#263238"></circle><path d="M246.52,245.36h-1v-4h1Zm0-7h-1v-4h1Zm0-7h-1v-4h1Zm83-4h-4v-1h4Zm-7,0h-4v-1h4Zm-7,0h-4v-1h4Zm-7,0h-4v-1h4Zm-7,0h-4v-1h4Zm-7,0h-4v-1h4Zm-7,0h-4v-1h4Zm-7,0h-4v-1h4Zm-7,0h-4v-1h4Zm-7,0h-4v-1h4Zm-7,0h-4v-1h4Zm-7,0h-4v-1h4Z" style="fill:#263238"></path><path d="M247.53,245.28a1.51,1.51,0,1,1-3,0,1.51,1.51,0,0,1,3,0Z" style="fill:#263238"></path><circle cx="331.41" cy="226.86" r="1.5" style="fill:#263238"></circle><path d="M331.49,335.93h-.13v-1h.13Zm-3.13,0h-.93v-4.07h1v3.57h-.07Zm.07-7.07h-1v-4h1Zm0-7h-1v-4h1Zm0-7h-1v-4h1Zm0-7h-1v-4h1Zm0-7h-1v-4h1Zm0-7h-1v-4h1Zm0-7h-1v-4h1Zm0-7h-1v-4h1Zm0-7h-1v-4h1Zm0-7h-1v-4h1Zm0-7h-1v-4h1Zm0-7h-1v-4h1Zm0-7h-1v-4h1Zm0-7h-1v-4h1Zm0-7h-1v-4h1Z" style="fill:#263238"></path><circle cx="331.41" cy="335.43" r="1.5" style="fill:#263238"></circle><path d="M422.64,226.86h-1v-4h1Zm0-7h-1v-4h1Zm0-7h-1v-4h1Zm0-7h-1v-4h1Zm0-7h-1v-4h1Zm0-7h-1v-4h1Zm0-7h-1v-4h1Zm0-7h-1v-4h1Zm0-7h-1v-4h1Zm0-7h-1v-4h1Zm0-7h-1v-4h1Zm0-7h-1v-4h1Zm0-7h-1v-4h1Zm0-7h-1v-4h1Zm0-7h-1v-4h1Zm0-7h-1v-3.57h.07v-.5h.93Zm-3.93-3.07h-.13v-1h.13Z" style="fill:#263238"></path><circle cx="418.66" cy="118.29" r="1.5" style="fill:#263238"></circle><path d="M447.1,227.36h-4v-1h4Zm-7,0h-4v-1h4Zm-7,0h-4v-1h4Zm-7,0h-4v-1h4Zm-7,0h-.52v-1h.52Z" style="fill:#263238"></path><path d="M447,225.36a1.5,1.5,0,1,1-1.51,1.5A1.5,1.5,0,0,1,447,225.36Z" style="fill:#263238"></path><circle cx="418.66" cy="226.86" r="1.5" style="fill:#263238"></circle><path d="M422.64,335.93h-.93v-.5h-.07v-3.57h1Zm-3.93,0h-.13v-1h.13Zm3.93-7.07h-1v-4h1Zm0-7h-1v-4h1Zm0-7h-1v-4h1Zm0-7h-1v-4h1Zm0-7h-1v-4h1Zm0-7h-1v-4h1Zm0-7h-1v-4h1Zm0-7h-1v-4h1Zm0-7h-1v-4h1Zm0-7h-1v-4h1Zm0-7h-1v-4h1Zm0-7h-1v-4h1Zm0-7h-1v-4h1Zm0-7h-1v-4h1Zm0-7h-1v-4h1Z" style="fill:#263238"></path><circle cx="418.66" cy="335.43" r="1.5" style="fill:#263238"></circle></g></svg>